<?xml version="1.0" standalone="no"?>
<svg xmlns:xlink="http://www.w3.org/1999/xlink" id="wave" style="transform:rotate(0deg); transition: 0.3s" viewBox="0 0 1440 340" version="1.1" xmlns="http://www.w3.org/2000/svg"><defs><linearGradient id="sw-gradient-0" x1="0" x2="0" y1="1" y2="0"><stop stop-color="rgba(166, 174, 221, 1)" offset="0%"/><stop stop-color="rgba(0, 34, 232, 1)" offset="100%"/></linearGradient></defs><path style="transform:translate(0, 0px); opacity:1" fill="url(#sw-gradient-0)" d="M0,170L60,187C120,204,240,238,360,221C480,204,600,136,720,141.7C840,147,960,227,1080,249.3C1200,272,1320,238,1440,198.3C1560,159,1680,113,1800,130.3C1920,147,2040,227,2160,249.3C2280,272,2400,238,2520,209.7C2640,181,2760,159,2880,153C3000,147,3120,159,3240,181.3C3360,204,3480,238,3600,238C3720,238,3840,204,3960,187C4080,170,4200,170,4320,153C4440,136,4560,102,4680,107.7C4800,113,4920,159,5040,187C5160,215,5280,227,5400,243.7C5520,261,5640,283,5760,255C5880,227,6000,147,6120,102C6240,57,6360,45,6480,39.7C6600,34,6720,34,6840,28.3C6960,23,7080,11,7200,28.3C7320,45,7440,91,7560,113.3C7680,136,7800,136,7920,158.7C8040,181,8160,227,8280,238C8400,249,8520,227,8580,215.3L8640,204L8640,340L8580,340C8520,340,8400,340,8280,340C8160,340,8040,340,7920,340C7800,340,7680,340,7560,340C7440,340,7320,340,7200,340C7080,340,6960,340,6840,340C6720,340,6600,340,6480,340C6360,340,6240,340,6120,340C6000,340,5880,340,5760,340C5640,340,5520,340,5400,340C5280,340,5160,340,5040,340C4920,340,4800,340,4680,340C4560,340,4440,340,4320,340C4200,340,4080,340,3960,340C3840,340,3720,340,3600,340C3480,340,3360,340,3240,340C3120,340,3000,340,2880,340C2760,340,2640,340,2520,340C2400,340,2280,340,2160,340C2040,340,1920,340,1800,340C1680,340,1560,340,1440,340C1320,340,1200,340,1080,340C960,340,840,340,720,340C600,340,480,340,360,340C240,340,120,340,60,340L0,340Z"/></svg>